<?xml version="1.0" encoding="UTF-8" standalone="no" ?>
<!DOCTYPE svg PUBLIC "-//W3C//DTD SVG 1.1//EN" "http://www.w3.org/Graphics/SVG/1.1/DTD/svg11.dtd">
<svg xmlns="http://www.w3.org/2000/svg" xmlns:xlink="http://www.w3.org/1999/xlink" version="1.1" width="1080" height="1080" viewBox="0 0 1080 1080" xml:space="preserve">
<desc>Created with Fabric.js 5.2.4</desc>
<defs>
</defs>
<g transform="matrix(1 0 0 1 540 540)" id="d490f86c-2be8-4415-a0e5-4b3b143cbcd5"  >
<rect style="stroke: none; stroke-width: 1; stroke-dasharray: none; stroke-linecap: butt; stroke-dashoffset: 0; stroke-linejoin: miter; stroke-miterlimit: 4; fill: rgb(255,255,255); fill-rule: nonzero; opacity: 1; visibility: hidden;" vector-effect="non-scaling-stroke"  x="-540" y="-540" rx="0" ry="0" width="1080" height="1080" />
</g>
<g transform="matrix(1 0 0 1 540 540)" id="a6c4ae3a-7474-4eb4-9f35-13c9a9b7cda7"  >
</g>
<g transform="matrix(1 0 0 1 540 521.55)"  >
<g style="" vector-effect="non-scaling-stroke"   >
		<g transform="matrix(1 0 0 1 0.87 -27.55)"  >
<path style="stroke: none; stroke-width: 1; stroke-dasharray: none; stroke-linecap: butt; stroke-dashoffset: 0; stroke-linejoin: miter; stroke-miterlimit: 4; fill: rgb(255,255,255); fill-rule: nonzero; opacity: 1;" vector-effect="non-scaling-stroke"  transform=" translate(-356.49, -305.71)" d="M 438.192322 228.75177 C 462.045654 247.381439 478.510193 270.611359 486.2854 299.689178 C 495.873627 335.547638 491.026703 369.482635 473.094391 401.877563 C 469.97467 407.513428 465.64859 408.861938 460.12619 408.995575 C 456.679932 409.078979 448.675507 406.690369 444.949432 404.598236 C 444.391388 403.04483 445.566223 402.133789 446.317352 401.09967 C 459.055939 383.561829 466.118011 364.068024 467.828064 342.373993 C 472.456573 283.654663 430.820282 236.200745 379.174652 226.451904 C 325.894196 216.394455 276.089539 240.728226 253.928543 289.885071 C 242.69458 314.803955 241.606445 340.677795 249.141953 366.915649 C 250.84903 372.859528 250.681839 373.332367 244.909653 375.040253 C 241.240616 376.125854 237.491394 376.96991 233.883926 378.226074 C 230.168594 379.519806 228.487015 378.348846 227.486237 374.59964 C 222.859711 357.267273 220.743317 339.835999 222.46492 321.806488 C 225.760925 287.289062 240.668274 258.701935 265.993713 235.632645 C 289.979187 213.783997 318.741547 203.610046 351.142975 202.519394 C 383.129425 201.442719 412.038239 209.6819 438.192322 228.75177 z" stroke-linecap="round" />
</g>
		<g transform="matrix(1 0 0 1 0 91.71)"  >
<path style="stroke: none; stroke-width: 1; stroke-dasharray: none; stroke-linecap: butt; stroke-dashoffset: 0; stroke-linejoin: miter; stroke-miterlimit: 4; fill: rgb(255,255,255); fill-rule: nonzero; opacity: 1;" vector-effect="non-scaling-stroke"  transform=" translate(-355.62, -424.97)" d="M 340.354858 399.527649 C 361.397552 409.277924 381.092651 420.937592 402.282013 429.525574 C 421.385406 437.268127 441.162018 441.740143 461.774994 439.488007 C 491.99704 436.186035 516.763977 422.428741 535.751709 398.519806 C 537.507935 396.308472 539.244202 394.015808 541.337708 392.151611 C 545.659302 388.303345 551.096802 388.150177 555.552917 391.406372 C 559.528503 394.311462 561.098877 399.889862 559.364319 404.832092 C 558.007568 408.697845 555.448853 411.830139 552.837402 414.812775 C 530.344055 440.503784 502.868134 457.769745 468.65799 462.515778 C 444.250122 465.901917 420.583984 461.882416 397.677307 452.872894 C 377.487152 444.931793 358.410339 434.666992 338.920227 425.260498 C 317.460785 414.903564 295.083099 408.761597 270.975586 410.013519 C 244.210052 411.403503 220.409988 420.804688 198.737625 436.142883 C 188.650177 443.282104 179.362183 451.364624 170.734116 460.215942 C 167.483398 463.550812 163.687943 465.108429 158.988556 463.382446 C 154.423004 461.705658 152.08287 458.180267 151.313446 453.695648 C 150.44809 448.651703 153.849884 445.284576 156.864532 441.959656 C 167.111877 430.657745 178.92955 421.187683 191.605652 412.786285 C 217.659836 395.518127 246.328812 386.321747 277.604797 385.85434 C 299.39325 385.528748 320.228302 390.159119 340.354858 399.527649 z" stroke-linecap="round" />
</g>
</g>
</g>
</svg>