<svg xmlns="http://www.w3.org/2000/svg" xmlns:xlink="http://www.w3.org/1999/xlink" version="1.1" id="Layer_1" x="0px" y="0px" width="100%" viewBox="0 0 704 704" enable-background="new 0 0 704 704" xml:space="preserve">
<path fill="#ffffff" opacity="1.000000" stroke="none" d=" M438.192322,228.751770   C462.045654,247.381439 478.510193,270.611359 486.285400,299.689178   C495.873627,335.547638 491.026703,369.482635 473.094391,401.877563   C469.974670,407.513428 465.648590,408.861938 460.126190,408.995575   C456.679932,409.078979 448.675507,406.690369 444.949432,404.598236   C444.391388,403.044830 445.566223,402.133789 446.317352,401.099670   C459.055939,383.561829 466.118011,364.068024 467.828064,342.373993   C472.456573,283.654663 430.820282,236.200745 379.174652,226.451904   C325.894196,216.394455 276.089539,240.728226 253.928543,289.885071   C242.694580,314.803955 241.606445,340.677795 249.141953,366.915649   C250.849030,372.859528 250.681839,373.332367 244.909653,375.040253   C241.240616,376.125854 237.491394,376.969910 233.883926,378.226074   C230.168594,379.519806 228.487015,378.348846 227.486237,374.599640   C222.859711,357.267273 220.743317,339.835999 222.464920,321.806488   C225.760925,287.289062 240.668274,258.701935 265.993713,235.632645   C289.979187,213.783997 318.741547,203.610046 351.142975,202.519394   C383.129425,201.442719 412.038239,209.681900 438.192322,228.751770  z"/>
<path fill="#ffffff" opacity="1.000000" stroke="none" d=" M340.354858,399.527649   C361.397552,409.277924 381.092651,420.937592 402.282013,429.525574   C421.385406,437.268127 441.162018,441.740143 461.774994,439.488007   C491.997040,436.186035 516.763977,422.428741 535.751709,398.519806   C537.507935,396.308472 539.244202,394.015808 541.337708,392.151611   C545.659302,388.303345 551.096802,388.150177 555.552917,391.406372   C559.528503,394.311462 561.098877,399.889862 559.364319,404.832092   C558.007568,408.697845 555.448853,411.830139 552.837402,414.812775   C530.344055,440.503784 502.868134,457.769745 468.657990,462.515778   C444.250122,465.901917 420.583984,461.882416 397.677307,452.872894   C377.487152,444.931793 358.410339,434.666992 338.920227,425.260498   C317.460785,414.903564 295.083099,408.761597 270.975586,410.013519   C244.210052,411.403503 220.409988,420.804688 198.737625,436.142883   C188.650177,443.282104 179.362183,451.364624 170.734116,460.215942   C167.483398,463.550812 163.687943,465.108429 158.988556,463.382446   C154.423004,461.705658 152.082870,458.180267 151.313446,453.695648   C150.448090,448.651703 153.849884,445.284576 156.864532,441.959656   C167.111877,430.657745 178.929550,421.187683 191.605652,412.786285   C217.659836,395.518127 246.328812,386.321747 277.604797,385.854340   C299.393250,385.528748 320.228302,390.159119 340.354858,399.527649  z"/>
</svg>